Coordinates
version=1
nRows=13
nColumns=22
inDegrees=yes

Units are S.I. units (second, meters, Newtons, ...)
If the header above contains a line with 'inDegrees', this indicates whether rotational values are in degrees (yes) or radians (no).

endheader
time	pelvis_tilt	pelvis_list	pelvis_rotation	pelvis_tx	pelvis_ty	pelvis_tz	hip_flexion_r	hip_adduction_r	hip_rotation_r	knee_angle_r	ankle_angle_r	subtalar_angle_r	hip_flexion_l	hip_adduction_l	hip_rotation_l	knee_angle_l	ankle_angle_l	subtalar_angle_l	lumbar_extension	lumbar_bending	lumbar_rotation
      2.42000000	      4.64447939	      6.61030015	    -18.59593099	      0.21581238	      0.86359664	     -0.23164632	     -9.96336864	     -7.81771635	      4.77617520	    -44.89024529	      6.89223477	     -2.72378201	     25.63904270	      4.35806676	      4.18913746	    -30.76320885	      6.16289781	     -0.11529849	     -7.69510086	     -6.84239690	      6.55230698
      2.43000000	      4.86926683	      7.10741083	    -19.15123855	      0.22636882	      0.86444601	     -0.23046276	     -8.33569476	     -8.45231097	      5.30479422	    -48.13355637	      4.94855536	     -2.89473866	     24.94825163	      4.93837010	      3.55755314	    -30.94431761	      6.78696998	     -0.26897024	     -7.75885018	     -7.43890069	      6.70646927
      2.44000000	      5.00978354	      7.55218855	    -19.76547122	      0.23644316	      0.86532099	     -0.22902214	     -6.43443480	     -8.95840482	      5.87205542	    -51.43645444	      3.18528925	     -3.07540834	     24.27712314	      5.38856590	      2.83975541	    -30.99321906	      7.44154622	     -0.61398733	     -7.76996379	     -7.97017650	      6.82825482
      2.45000000	      5.16172750	      7.94684810	    -20.44050104	      0.24611510	      0.86640926	     -0.22736457	     -4.41599443	     -9.38497627	      6.41981742	    -54.66667903	      1.72705838	     -3.36640745	     23.49952834	      5.77683268	      2.12282648	    -30.86874156	      8.08411749	     -0.89498816	     -7.82939335	     -8.46421998	      6.98113060
      2.46000000	      5.24307913	      8.26776908	    -21.12591989	      0.25540331	      0.86761052	     -0.22552231	     -2.24924749	     -9.64951209	      6.93265970	    -57.74405687	      0.67946781	     -3.84334167	     22.73596441	      6.06909603	      1.45007224	    -30.65489309	      8.71883117	     -1.36371986	     -7.85449204	     -8.86423015	      7.10172790
      2.47000000	      5.35186798	      8.52314127	    -21.85399065	      0.26440132	      0.86909233	     -0.22341155	     -0.08794515	     -9.79910638	      7.40972994	    -60.56419344	      0.16170282	     -4.46613027	     21.85365705	      6.30113830	      0.79172681	    -30.29934573	      9.29765164	     -1.75588331	     -7.93308995	     -9.22139567	      7.19194210
      2.48000000	      5.45471498	      8.68885275	    -22.58593388	      0.27315935	      0.87082903	     -0.22109045	      2.05046447	     -9.79316306	      7.80879728	    -63.07160012	      0.14331599	     -5.14377153	     20.89063817	      6.46137461	      0.21429130	    -29.83486052	      9.80605221	     -2.12409680	     -8.03963814	     -9.49256556	      7.26274790
      2.49000000	      5.55882555	      8.75552800	    -23.27870330	      0.28176251	      0.87280245	     -0.21861809	      4.10941267	     -9.65546914	      8.03779773	    -65.22686331	      0.55409688	     -5.94872616	     19.85202392	      6.54767215	     -0.30173683	    -29.29932941	     10.30314305	     -2.55600843	     -8.18798336	     -9.66187428	      7.24411957
      2.50000000	      5.67114659	      8.72693223	    -23.95448932	      0.29022995	      0.87500980	     -0.21595709	      6.06771039	     -9.40035870	      8.11714145	    -67.01561591	      1.25781122	     -6.60777532	     18.71782057	      6.56085471	     -0.76488326	    -28.67408044	     10.71160823	     -2.93787695	     -8.37860227	     -9.74345829	      7.18898849
      2.51000000	      5.78658413	      8.59865015	    -24.54255516	      0.29867444	      0.87739706	     -0.21322468	      7.87816276	     -9.07246839	      7.93122366	    -68.41561151	      2.18385789	     -7.36567466	     17.50366389	      6.51014471	     -1.15396250	    -27.99317480	     11.16258609	     -3.41112769	     -8.61506310	     -9.71441838	      6.99811401
      2.52000000	      5.91057225	      8.40057840	    -25.12255935	      0.30704378	      0.87991507	     -0.21032890	      9.57604293	     -8.69778427	      7.59335059	    -69.46381460	      3.13564499	     -7.79934134	     16.19804231	      6.40297304	     -1.52856531	    -27.21707129	     11.50403166	     -3.76609158	     -8.87849236	     -9.62445179	      6.81897053
      2.53000000	      6.05606299	      8.13556191	    -25.64349440	      0.31537646	      0.88249256	     -0.20738298	     11.12105776	     -8.32258645	      7.04558256	    -70.16915489	      4.14051955	     -8.14492438	     14.82927867	      6.25415668	     -1.89609061	    -26.41975731	     11.85492174	     -4.10045838	     -9.20050230	     -9.46372711	      6.51348639
      2.54000000	      6.19021614	      7.81649166	    -26.09995203	      0.32371005	      0.88505475	     -0.20437668	     12.53697159	     -7.95505542	      6.29940002	    -70.54141073	      5.15932349	     -8.43352812	     13.41925080	      6.06123286	     -2.23427752	    -25.57364170	     12.15950188	     -4.38978150	     -9.52895421	     -9.24028592	      6.15947321
